<svg width="72" height="12" viewBox="0 0 72 12" fill="none" xmlns="http://www.w3.org/2000/svg">
<path d="M8.64062 8.12891L9.98047 1.04688H12.0244L9.81641 11H7.75195L6.13184 4.3418L4.51172 11H2.44727L0.239258 1.04688H2.2832L3.62988 8.11523L5.27051 1.04688H7.00684L8.64062 8.12891ZM17.0625 11C16.9714 10.8223 16.9053 10.6012 16.8643 10.3369C16.3857 10.8701 15.7637 11.1367 14.998 11.1367C14.2734 11.1367 13.6719 10.9271 13.1934 10.5078C12.7194 10.0885 12.4824 9.5599 12.4824 8.92188C12.4824 8.13802 12.7718 7.53646 13.3506 7.11719C13.9339 6.69792 14.7747 6.486 15.873 6.48145H16.7822V6.05762C16.7822 5.71582 16.6934 5.44238 16.5156 5.2373C16.3424 5.03223 16.0667 4.92969 15.6885 4.92969C15.3558 4.92969 15.0938 5.00944 14.9023 5.16895C14.7155 5.32845 14.6221 5.5472 14.6221 5.8252H12.6465C12.6465 5.39681 12.7786 5.00033 13.043 4.63574C13.3073 4.27116 13.681 3.98633 14.1641 3.78125C14.6471 3.57161 15.1895 3.4668 15.791 3.4668C16.7025 3.4668 17.4248 3.69694 17.958 4.15723C18.4958 4.61296 18.7646 5.25553 18.7646 6.08496V9.29102C18.7692 9.99284 18.8672 10.5238 19.0586 10.8838V11H17.0625ZM15.4287 9.62598C15.7204 9.62598 15.9893 9.56217 16.2354 9.43457C16.4814 9.30241 16.6637 9.12695 16.7822 8.9082V7.63672H16.0439C15.055 7.63672 14.5286 7.97852 14.4648 8.66211L14.458 8.77832C14.458 9.02441 14.5446 9.22721 14.7178 9.38672C14.891 9.54622 15.1279 9.62598 15.4287 9.62598ZM22.1006 3.60352L22.1621 4.45801C22.6908 3.7972 23.3994 3.4668 24.2881 3.4668C25.0719 3.4668 25.6553 3.69694 26.0381 4.15723C26.4209 4.61751 26.6169 5.30566 26.626 6.22168V11H24.6504V6.26953C24.6504 5.85026 24.5592 5.5472 24.377 5.36035C24.1947 5.16895 23.8916 5.07324 23.4678 5.07324C22.9118 5.07324 22.4948 5.31022 22.2168 5.78418V11H20.2412V3.60352H22.1006ZM27.8223 7.24707C27.8223 6.09408 28.0798 5.17578 28.5947 4.49219C29.1143 3.80859 29.8229 3.4668 30.7207 3.4668C31.4408 3.4668 32.0355 3.73568 32.5049 4.27344V0.5H34.4873V11H32.7031L32.6074 10.2139C32.1152 10.8291 31.4818 11.1367 30.707 11.1367C29.8366 11.1367 29.137 10.7949 28.6084 10.1113C28.0843 9.42318 27.8223 8.46842 27.8223 7.24707ZM29.7979 7.39062C29.7979 8.08333 29.9186 8.61426 30.1602 8.9834C30.4017 9.35254 30.7526 9.53711 31.2129 9.53711C31.8236 9.53711 32.2542 9.27962 32.5049 8.76465V5.8457C32.2588 5.33073 31.8327 5.07324 31.2266 5.07324C30.2741 5.07324 29.7979 5.8457 29.7979 7.39062ZM39.4229 11.1367C38.3382 11.1367 37.4541 10.804 36.7705 10.1387C36.0915 9.47331 35.752 8.58691 35.752 7.47949V7.28809C35.752 6.54525 35.8955 5.88216 36.1826 5.29883C36.4697 4.71094 36.8753 4.25977 37.3994 3.94531C37.9281 3.6263 38.5296 3.4668 39.2041 3.4668C40.2158 3.4668 41.0111 3.78581 41.5898 4.42383C42.1732 5.06185 42.4648 5.96647 42.4648 7.1377V7.94434H37.7549C37.8187 8.42741 38.0101 8.81478 38.3291 9.10645C38.6527 9.39811 39.0605 9.54395 39.5527 9.54395C40.3138 9.54395 40.9085 9.26823 41.3369 8.7168L42.3076 9.80371C42.0114 10.223 41.6104 10.5511 41.1045 10.7881C40.5986 11.0205 40.0381 11.1367 39.4229 11.1367ZM39.1973 5.06641C38.8053 5.06641 38.4863 5.19857 38.2402 5.46289C37.9987 5.72721 37.8438 6.10547 37.7754 6.59766H40.5234V6.44043C40.5143 6.00293 40.3958 5.66569 40.168 5.42871C39.9401 5.18717 39.6165 5.06641 39.1973 5.06641ZM47.749 5.45605C47.4801 5.4196 47.2432 5.40137 47.0381 5.40137C46.2907 5.40137 45.8008 5.6543 45.5684 6.16016V11H43.5928V3.60352H45.459L45.5137 4.48535C45.9102 3.80632 46.4593 3.4668 47.1611 3.4668C47.3799 3.4668 47.585 3.49642 47.7764 3.55566L47.749 5.45605ZM50.791 11H48.8086V0.5H50.791V11ZM56.8545 10.248C56.3669 10.8405 55.6924 11.1367 54.8311 11.1367C54.0381 11.1367 53.432 10.9089 53.0127 10.4531C52.598 9.9974 52.3861 9.32975 52.377 8.4502V3.60352H54.3525V8.38184C54.3525 9.15202 54.7035 9.53711 55.4053 9.53711C56.0752 9.53711 56.5355 9.30469 56.7861 8.83984V3.60352H58.7686V11H56.9092L56.8545 10.248ZM64.2646 8.95605C64.2646 8.71452 64.1439 8.52539 63.9023 8.38867C63.6654 8.2474 63.2826 8.12207 62.7539 8.0127C60.9948 7.64355 60.1152 6.89616 60.1152 5.77051C60.1152 5.11426 60.3864 4.56738 60.9287 4.12988C61.4756 3.68783 62.1888 3.4668 63.0684 3.4668C64.0072 3.4668 64.7568 3.68783 65.3174 4.12988C65.8825 4.57194 66.165 5.14616 66.165 5.85254H64.1895C64.1895 5.56999 64.0983 5.33757 63.916 5.15527C63.7337 4.96842 63.4489 4.875 63.0615 4.875C62.7288 4.875 62.4714 4.9502 62.2891 5.10059C62.1068 5.25098 62.0156 5.44238 62.0156 5.6748C62.0156 5.89355 62.1182 6.07129 62.3232 6.20801C62.5329 6.34017 62.8838 6.45638 63.376 6.55664C63.8682 6.65234 64.2829 6.76172 64.6201 6.88477C65.6637 7.26758 66.1855 7.93066 66.1855 8.87402C66.1855 9.5485 65.8962 10.0954 65.3174 10.5146C64.7386 10.9294 63.9912 11.1367 63.0752 11.1367C62.4554 11.1367 61.904 11.0273 61.4209 10.8086C60.9424 10.5853 60.5664 10.2822 60.293 9.89941C60.0195 9.51204 59.8828 9.09505 59.8828 8.64844H61.7559C61.7741 8.99935 61.904 9.26823 62.1455 9.45508C62.387 9.64193 62.7106 9.73535 63.1162 9.73535C63.4945 9.73535 63.7793 9.66471 63.9707 9.52344C64.1667 9.3776 64.2646 9.18848 64.2646 8.95605ZM69.8291 1.78516V3.60352H71.0938V5.05273H69.8291V8.74414C69.8291 9.01758 69.8815 9.21354 69.9863 9.33203C70.0911 9.45052 70.2917 9.50977 70.5879 9.50977C70.8066 9.50977 71.0003 9.49382 71.1689 9.46191V10.959C70.7816 11.0775 70.3828 11.1367 69.9727 11.1367C68.5872 11.1367 67.8809 10.4372 67.8535 9.03809V5.05273H66.7734V3.60352H67.8535V1.78516H69.8291Z" fill="black"/>
</svg>
